<svg width="57" height="51" viewBox="0 0 57 51" fill="none" xmlns="http://www.w3.org/2000/svg">
<path d="M14.8387 0.0141068C14.7309 0.0226822 14.3815 0.0612602 14.0623 0.0998344C7.65675 0.837101 2.39861 5.65074 1.11751 11.9475C0.543814 14.7765 0.828504 18.4071 1.85511 21.4762C2.94211 24.7039 4.76671 27.5243 7.88105 30.7863C9.35626 32.3294 10.6158 33.4867 14.7309 37.0873C15.7273 37.9574 16.8358 38.9305 17.1895 39.2519C21.6066 43.1954 24.6734 46.5046 27.309 50.1694L27.5386 50.4907C27.7464 50.7814 28.0818 50.9539 28.4391 50.9539C28.7957 50.9512 29.1283 50.7737 29.3291 50.479L29.5692 50.1266C31.9719 46.6031 34.7972 43.4398 38.9942 39.5777C39.8181 38.8147 40.7541 37.9789 43.4242 35.6214C47.5478 31.9693 49.6571 29.8647 51.3653 27.6915C54.1388 24.1552 55.5407 20.8204 55.9548 16.7483C56.0368 15.9081 56.0282 13.8978 55.9333 13.1691C55.4803 9.71855 54.031 6.75235 51.6284 4.36482C49.2258 1.97729 46.2365 0.532764 42.7685 0.0869751C41.936 -0.0158958 40.1243 -0.0158958 39.2746 0.0869751C36.1128 0.485615 33.3263 1.74582 30.9927 3.8333C30.1688 4.57057 29.2414 5.62074 28.685 6.44802C28.5556 6.6409 28.4391 6.7995 28.4262 6.7995C28.4132 6.7995 28.2968 6.6409 28.1674 6.44802C27.6109 5.62074 26.6835 4.57057 25.8596 3.8333C23.5692 1.7844 20.8129 0.519905 17.7589 0.116982C17.1292 0.0312538 15.3347 -0.0287552 14.8387 0.0141068Z" fill="#520005"/>
</svg>
