<svg width="50" height="47" viewBox="0 0 50 47" fill="none" xmlns="http://www.w3.org/2000/svg">
<g filter="url(#filter0_d_21_382)">
<path d="M15.3328 4.66757C15.2718 4.67242 15.0744 4.69423 14.8939 4.71603C11.2735 5.13274 8.30153 7.85346 7.57743 11.4124C7.25318 13.0114 7.41409 15.0635 7.99434 16.7982C8.60872 18.6225 9.64 20.2166 11.4003 22.0603C12.2341 22.9325 12.946 23.5866 15.2718 25.6217C15.835 26.1135 16.4616 26.6635 16.6615 26.8452C19.158 29.0741 20.8915 30.9444 22.3811 33.0159L22.5109 33.1974C22.6284 33.3617 22.8179 33.4592 23.0199 33.4592C23.2214 33.4577 23.4094 33.3574 23.5229 33.1908L23.6586 32.9916C25.0166 31.0002 26.6135 29.2122 28.9857 27.0293C29.4514 26.5981 29.9804 26.1256 31.4896 24.7931C33.8203 22.729 35.0125 21.5394 35.978 20.3111C37.5456 18.3124 38.338 16.4275 38.572 14.1259C38.6184 13.651 38.6135 12.5148 38.5598 12.1029C38.3039 10.1526 37.4847 8.4761 36.1267 7.12664C34.7687 5.77718 33.0792 4.96072 31.119 4.70876C30.6485 4.65062 29.6245 4.65062 29.1442 4.70876C27.3571 4.93407 25.7822 5.64635 24.4632 6.82622C23.9975 7.24293 23.4733 7.8365 23.1588 8.30408C23.0857 8.41311 23.0199 8.50275 23.0126 8.50275C23.0052 8.50275 22.9394 8.41311 22.8663 8.30408C22.5518 7.8365 22.0276 7.24293 21.5619 6.82622C20.2673 5.66816 18.7095 4.95346 16.9833 4.72572C16.6274 4.67727 15.6132 4.64335 15.3328 4.66757Z" fill="#D80C1D"/>
</g>
<defs>
<filter id="filter0_d_21_382" x="0.766275" y="0.228827" width="48.9142" height="46.5226" filterUnits="userSpaceOnUse" color-interpolation-filters="sRGB">
<feFlood flood-opacity="0" result="BackgroundImageFix"/>
<feColorMatrix in="SourceAlpha" type="matrix" values="0 0 0 0 0 0 0 0 0 0 0 0 0 0 0 0 0 0 127 0" result="hardAlpha"/>
<feOffset dx="2.21536" dy="4.43072"/>
<feGaussianBlur stdDeviation="4.43072"/>
<feComposite in2="hardAlpha" operator="out"/>
<feColorMatrix type="matrix" values="0 0 0 0 0 0 0 0 0 0 0 0 0 0 0 0 0 0 0.45 0"/>
<feBlend mode="normal" in2="BackgroundImageFix" result="effect1_dropShadow_21_382"/>
<feBlend mode="normal" in="SourceGraphic" in2="effect1_dropShadow_21_382" result="shape"/>
</filter>
</defs>
</svg>
