<svg width="32" height="30" viewBox="0 0 32 30" fill="none" xmlns="http://www.w3.org/2000/svg">
<path d="M8.69036 1.77117L8.69035 1.77114C8.6898 1.77119 8.69083 1.7711 8.69368 1.77092C8.69647 1.77074 8.70102 1.77048 8.70751 1.77018C8.72006 1.76959 8.73672 1.769 8.7578 1.7685C8.80023 1.76751 8.85373 1.76706 8.91693 1.7673C9.04327 1.76777 9.19582 1.77096 9.35368 1.77641C9.68645 1.78791 9.97913 1.80735 10.0961 1.82328L10.1006 1.82389C11.6065 2.02256 12.9573 2.64252 14.0855 3.65165L8.69036 1.77117ZM8.69036 1.77117L8.6828 1.77177M8.69036 1.77117L8.6828 1.77177M8.6828 1.77177C8.68321 1.77174 8.67977 1.77201 8.67099 1.77285L8.63907 1.77603C8.61286 1.77871 8.57982 1.78225 8.54194 1.78643C8.46623 1.79479 8.37554 1.80526 8.28906 1.81573L8.28281 1.81644M8.6828 1.77177L8.28281 1.81644M8.28281 1.81644C5.13666 2.17856 2.55336 4.54593 1.92515 7.63297L8.28281 1.81644ZM21.4964 22.2156C19.2287 24.3024 17.6278 26.062 16.2667 27.9913C14.7811 25.9884 13.0531 24.1545 10.665 22.0221C10.4513 21.8281 9.81935 21.2735 9.26344 20.7881C6.93549 18.7512 6.2585 18.1269 5.46313 17.2949C3.78108 15.533 2.85541 14.0746 2.30665 12.4457C1.7803 10.8715 1.64443 9.0181 1.92508 7.63328L28.3692 15.6267C27.468 16.7734 26.3376 17.909 24.0182 19.9632C22.5127 21.2925 21.9731 21.7741 21.4964 22.2156ZM21.4964 22.2156C21.496 22.2159 21.4957 22.2163 21.4953 22.2166L22.2479 23.0293L21.4979 22.2142C21.4974 22.2147 21.4969 22.2151 21.4964 22.2156ZM18.4641 3.65165C18.0596 4.01356 17.5988 4.53808 17.3409 4.92119L28.3693 15.6266C29.8203 13.7764 30.521 12.0869 30.732 10.0163C30.7715 9.60703 30.7644 8.56077 30.7237 8.2467C30.4986 6.53214 29.7868 5.08363 28.6081 3.91235C27.4294 2.741 25.968 2.03009 24.2428 1.80777C23.8626 1.76129 22.9354 1.76097 22.542 1.80811C20.975 2.00624 19.6114 2.62532 18.4641 3.65165ZM16.4806 28.6917L16.2821 28.8336L16.4806 28.6917Z" stroke="#D2D2D2" stroke-width="2.21536"/>
</svg>
