<svg width="32" height="30" viewBox="0 0 32 30" fill="none" xmlns="http://www.w3.org/2000/svg">
<path d="M8.69036 1.77105L8.69035 1.77102C8.6898 1.77107 8.69083 1.77098 8.69368 1.7708C8.69647 1.77062 8.70102 1.77036 8.70751 1.77005C8.72006 1.76947 8.73672 1.76888 8.7578 1.76838C8.80023 1.76739 8.85373 1.76694 8.91693 1.76717C9.04327 1.76765 9.19582 1.77083 9.35368 1.77629C9.68645 1.78778 9.97913 1.80723 10.0961 1.82315L10.1006 1.82377C11.6065 2.02243 12.9573 2.6424 14.0855 3.65153L8.69036 1.77105ZM8.69036 1.77105L8.6828 1.77165M8.69036 1.77105L8.6828 1.77165M8.6828 1.77165C8.68321 1.77161 8.67977 1.77189 8.67099 1.77273L8.63907 1.7759C8.61286 1.77859 8.57982 1.78213 8.54194 1.78631C8.46623 1.79467 8.37554 1.80513 8.28906 1.8156L8.28281 1.81632M8.6828 1.77165L8.28281 1.81632M8.28281 1.81632C5.13666 2.17844 2.55336 4.54581 1.92515 7.63284L8.28281 1.81632ZM21.4964 22.2155C19.2287 24.3023 17.6278 26.0619 16.2667 27.9912C14.7811 25.9883 13.0531 24.1544 10.665 22.022C10.4513 21.828 9.81935 21.2734 9.26344 20.788C6.93549 18.7511 6.2585 18.1267 5.46313 17.2948C3.78108 15.5329 2.85541 14.0745 2.30665 12.4456C1.7803 10.8714 1.64443 9.01797 1.92508 7.63316L28.3692 15.6266C27.468 16.7732 26.3376 17.9089 24.0182 19.963C22.5127 21.2924 21.9731 21.774 21.4964 22.2155ZM21.4964 22.2155C21.496 22.2158 21.4957 22.2161 21.4953 22.2165L22.2479 23.0292L21.4979 22.2141C21.4974 22.2146 21.4969 22.215 21.4964 22.2155ZM18.4641 3.65153C18.0596 4.01344 17.5988 4.53796 17.3409 4.92107L28.3693 15.6265C29.8203 13.7762 30.521 12.0868 30.732 10.0161C30.7715 9.60691 30.7644 8.56065 30.7237 8.24658C30.4986 6.53202 29.7868 5.08351 28.6081 3.91223C27.4294 2.74088 25.968 2.02997 24.2428 1.80765C23.8626 1.76117 22.9354 1.76085 22.542 1.80799C20.975 2.00612 19.6114 2.6252 18.4641 3.65153ZM16.4806 28.6915L16.2821 28.8335L16.4806 28.6915Z" stroke="#D2D2D2" stroke-width="2.21536"/>
</svg>
